<svg width="32" height="33" viewBox="0 0 32 33" fill="none" xmlns="http://www.w3.org/2000/svg">
<path d="M20.0006 3.5293H12.0006V5.95536H20.0006V3.5293Z" fill="#C0DDDB"/>
<path d="M17.1998 0.699707H14.8004V8.78533H17.1998V0.699707Z" fill="#C0DDDB"/>
<path d="M28.0631 28.6421H3.93823V32.6849H28.0631V28.6421Z" fill="#C0DDDB"/>
<path d="M6.74967 14.0166C7.25261 17.9873 9.29653 22.8513 10.9996 26.45H14.026V12.4246C14.026 10.0064 11.7018 9.03909 9.66566 9.43983C8.40497 9.68657 6.37955 11.095 6.74967 14.0166Z" fill="#C0DDDB"/>
<path d="M4.14127 12.5842C4.1364 12.3839 4.02409 12.2012 3.84734 12.1105C3.67153 12.0187 3.45965 12.0305 3.29559 12.144C3.29559 12.144 2.80828 12.3384 2.25753 12.8507C-0.611576 15.5216 -1.37138 19.6305 3.7409 26.4498H8.36294C6.96745 23.3526 4.58558 18.4363 4.16665 13.587C4.10709 12.8941 4.14127 12.5842 4.14127 12.5842Z" fill="#C0DDDB"/>
<path d="M25.2506 14.2722C24.7476 18.2429 22.7037 23.1079 21.0006 26.7046H17.9742V12.68C17.9742 10.2628 20.2985 9.29559 22.3346 9.69532C23.5953 9.94307 25.6207 11.3506 25.2506 14.2722Z" fill="#C0DDDB"/>
<path d="M27.859 12.8399C27.8639 12.6395 27.9772 12.4579 28.1529 12.3651C28.3287 12.2743 28.5406 12.2862 28.7047 12.3987C28.7047 12.3987 29.192 12.5941 29.7427 13.1074C32.6118 15.7782 33.3717 19.8862 28.2594 26.7045H23.6373C25.0328 23.6072 27.4147 18.6919 27.8336 13.8437C27.8932 13.1498 27.859 12.8399 27.859 12.8399Z" fill="#C0DDDB"/>
<path d="M16.7086 25.653C16.7086 26.0479 16.3912 26.3689 16.0006 26.3689C15.609 26.3689 15.2916 26.0479 15.2916 25.653C15.2916 25.257 15.609 24.936 16.0006 24.936C16.3912 24.936 16.7086 25.257 16.7086 25.653Z" fill="#C0DDDB"/>
<path d="M16.7086 22.7628C16.7086 23.1588 16.3912 23.4797 16.0006 23.4797C15.609 23.4797 15.2916 23.1588 15.2916 22.7628C15.2916 22.3678 15.609 22.0469 16.0006 22.0469C16.3912 22.0469 16.7086 22.3678 16.7086 22.7628Z" fill="#C0DDDB"/>
<path d="M16.7086 19.8746C16.7086 20.2696 16.3912 20.5905 16.0006 20.5905C15.609 20.5905 15.2916 20.2696 15.2916 19.8746C15.2916 19.4786 15.609 19.1577 16.0006 19.1577C16.3912 19.1577 16.7086 19.4786 16.7086 19.8746Z" fill="#C0DDDB"/>
<path d="M16.7086 16.985C16.7086 17.38 16.3912 17.7019 16.0006 17.7019C15.609 17.7019 15.2916 17.38 15.2916 16.985C15.2916 16.59 15.609 16.2681 16.0006 16.2681C16.3912 16.2681 16.7086 16.59 16.7086 16.985Z" fill="#C0DDDB"/>
<path d="M16.7086 14.0958C16.7086 14.4918 16.3912 14.8117 16.0006 14.8117C15.609 14.8117 15.2916 14.4917 15.2916 14.0958C15.2916 13.6999 15.609 13.3799 16.0006 13.3799C16.3912 13.3799 16.7086 13.6998 16.7086 14.0958Z" fill="#C0DDDB"/>
<path d="M16.7086 11.2067C16.7086 11.6017 16.3912 11.9236 16.0006 11.9236C15.609 11.9236 15.2916 11.6017 15.2916 11.2067C15.2916 10.8117 15.609 10.4897 16.0006 10.4897C16.3912 10.4898 16.7086 10.8117 16.7086 11.2067Z" fill="#C0DDDB"/>
<path d="M10.7794 24.3311H20.2794V22.3711H16.5994C15.8794 22.3711 14.9594 22.4311 14.1994 22.5111C17.3194 19.5311 19.5794 16.5911 19.5794 13.7511C19.5794 11.0911 17.8394 9.33105 15.1394 9.33105C13.2194 9.33105 11.9194 10.1511 10.6594 11.5311L11.9594 12.8111C12.7394 11.9111 13.6994 11.1711 14.8594 11.1711C16.5194 11.1711 17.3594 12.2711 17.3594 13.8711C17.3594 16.2911 15.1194 19.1511 10.7794 22.9911V24.3311Z" fill="#343434"/>
<path fill-rule="evenodd" clip-rule="evenodd" d="M8.77943 24.9222V22.0902L9.45413 21.4932C11.5857 19.6072 13.108 18.0416 14.0863 16.7128C15.078 15.3658 15.3594 14.4647 15.3594 13.8711C15.3594 13.3997 15.2358 13.2484 15.2297 13.2414C15.2296 13.2413 15.2299 13.2416 15.2297 13.2414C15.2273 13.2385 15.2204 13.2302 15.191 13.2182C15.154 13.203 15.0537 13.1711 14.8594 13.1711C14.5931 13.1711 14.1411 13.3475 13.4708 14.1209L12.0749 15.7315L7.88379 11.6049L9.18246 10.1825C10.6819 8.54024 12.4794 7.33105 15.1394 7.33105C16.933 7.33105 18.5813 7.92451 19.7861 9.12934C20.9904 10.3336 21.5794 11.9766 21.5794 13.7511C21.5794 15.7036 20.8057 17.5308 19.734 19.1721C19.4712 19.5745 19.1849 19.9743 18.8788 20.3711H22.2794V26.3311H8.77943V25.0926L8.57884 25.1137L8.77943 24.9222ZM10.7794 24.3311H20.2794V22.3711H16.5994C15.8948 22.3711 14.9987 22.4285 14.2485 22.5059C14.2321 22.5076 14.2157 22.5093 14.1994 22.5111C14.2623 22.451 14.3248 22.391 14.3869 22.3311C15.0029 21.7363 15.5834 21.1433 16.1174 20.5523C16.171 20.4929 16.2242 20.4336 16.2769 20.3743C18.2736 18.1263 19.5794 15.9098 19.5794 13.7511C19.5794 11.7997 18.6431 10.3327 17.0783 9.68957C16.51 9.45598 15.8588 9.33105 15.1394 9.33105C15.0446 9.33105 14.9513 9.33305 14.8594 9.33702C13.8056 9.38255 12.9415 9.68715 12.1618 10.2035C11.8474 10.4118 11.5466 10.6545 11.2527 10.9285C11.0525 11.1151 10.8555 11.3163 10.6594 11.5311L11.9594 12.8111C11.9744 12.7937 11.9895 12.7765 12.0046 12.7593C12.2031 12.5339 12.4131 12.3194 12.6349 12.125C13.2754 11.5638 14.0143 11.1711 14.8594 11.1711C14.9555 11.1711 15.0488 11.1747 15.1394 11.182C15.561 11.2158 15.923 11.3268 16.2251 11.5035C16.9793 11.9446 17.3594 12.7947 17.3594 13.8711C17.3594 15.4241 16.4369 17.1584 14.6288 19.2166C14.106 19.8117 13.5091 20.434 12.839 21.0868C12.4255 21.4896 11.9842 21.9041 11.5152 22.3311C11.3788 22.4552 11.2401 22.5804 11.099 22.7067C10.9938 22.8009 10.8873 22.8957 10.7794 22.9911V24.3311Z" fill="#8DBFDB"/>
</svg>
