<svg width="32" height="33" viewBox="0 0 32 33" fill="none" xmlns="http://www.w3.org/2000/svg">
<path d="M20.0006 3.36523H12.0006V5.7913H20.0006V3.36523Z" fill="#D7A06E"/>
<path d="M17.1998 0.535645H14.8004V8.62126H17.1998V0.535645Z" fill="#D7A06E"/>
<path d="M28.0631 28.478H3.93823V32.5208H28.0631V28.478Z" fill="#D7A06E"/>
<path d="M6.74967 13.8525C7.25261 17.8233 9.29653 22.6873 10.9996 26.2859H14.026V12.2605C14.026 9.84233 11.7018 8.87503 9.66566 9.27577C8.40497 9.52251 6.37955 10.931 6.74967 13.8525Z" fill="#D7A06E"/>
<path d="M4.14127 12.4202C4.1364 12.2198 4.02409 12.0372 3.84734 11.9464C3.67153 11.8546 3.45965 11.8664 3.29559 11.98C3.29559 11.98 2.80828 12.1744 2.25753 12.6867C-0.611576 15.3575 -1.37138 19.4665 3.7409 26.2857H8.36294C6.96745 23.1885 4.58558 18.2722 4.16665 13.423C4.10709 12.7301 4.14127 12.4202 4.14127 12.4202Z" fill="#D7A06E"/>
<path d="M25.2506 14.1081C24.7476 18.0788 22.7037 22.9438 21.0006 26.5406H17.9742V12.516C17.9742 10.0988 20.2985 9.13153 22.3346 9.53126C23.5953 9.77901 25.6207 11.1865 25.2506 14.1081Z" fill="#D7A06E"/>
<path d="M27.859 12.6758C27.8639 12.4755 27.9772 12.2939 28.1529 12.2011C28.3287 12.1102 28.5406 12.1221 28.7047 12.2346C28.7047 12.2346 29.192 12.43 29.7427 12.9433C32.6118 15.6141 33.3717 19.7221 28.2594 26.5404H23.6373C25.0328 23.4432 27.4147 18.5278 27.8336 13.6796C27.8932 12.9857 27.859 12.6758 27.859 12.6758Z" fill="#D7A06E"/>
<path d="M16.7086 25.4889C16.7086 25.8839 16.3912 26.2048 16.0006 26.2048C15.609 26.2048 15.2916 25.8839 15.2916 25.4889C15.2916 25.0929 15.609 24.772 16.0006 24.772C16.3912 24.772 16.7086 25.0929 16.7086 25.4889Z" fill="#D7A06E"/>
<path d="M16.7086 22.5987C16.7086 22.9947 16.3912 23.3156 16.0006 23.3156C15.609 23.3156 15.2916 22.9947 15.2916 22.5987C15.2916 22.2037 15.609 21.8828 16.0006 21.8828C16.3912 21.8828 16.7086 22.2037 16.7086 22.5987Z" fill="#D7A06E"/>
<path d="M16.7086 19.7106C16.7086 20.1056 16.3912 20.4265 16.0006 20.4265C15.609 20.4265 15.2916 20.1056 15.2916 19.7106C15.2916 19.3146 15.609 18.9937 16.0006 18.9937C16.3912 18.9937 16.7086 19.3146 16.7086 19.7106Z" fill="#D7A06E"/>
<path d="M16.7086 16.8209C16.7086 17.2159 16.3912 17.5378 16.0006 17.5378C15.609 17.5378 15.2916 17.2159 15.2916 16.8209C15.2916 16.4259 15.609 16.104 16.0006 16.104C16.3912 16.104 16.7086 16.4259 16.7086 16.8209Z" fill="#D7A06E"/>
<path d="M16.7086 13.9317C16.7086 14.3277 16.3912 14.6476 16.0006 14.6476C15.609 14.6476 15.2916 14.3277 15.2916 13.9317C15.2916 13.5358 15.609 13.2158 16.0006 13.2158C16.3912 13.2158 16.7086 13.5357 16.7086 13.9317Z" fill="#D7A06E"/>
<path d="M16.7086 11.0426C16.7086 11.4376 16.3912 11.7595 16.0006 11.7595C15.609 11.7595 15.2916 11.4376 15.2916 11.0426C15.2916 10.6476 15.609 10.3257 16.0006 10.3257C16.3912 10.3257 16.7086 10.6476 16.7086 11.0426Z" fill="#D7A06E"/>
<path d="M15.2594 24.5906C17.9594 24.5906 20.1793 23.0306 20.1793 20.3706C20.1793 18.3906 18.8394 17.1106 17.1394 16.6906V16.5906C18.6994 16.0106 19.6794 14.8306 19.6794 13.1306C19.6794 10.7106 17.8194 9.33057 15.1794 9.33057C13.4794 9.33057 12.1194 10.0706 10.9594 11.1106L12.1594 12.5506C12.9994 11.7306 13.9594 11.1906 15.0994 11.1706C16.4994 11.1906 17.3594 11.9906 17.3594 13.2906C17.3594 14.7706 16.3994 15.8706 13.4994 15.8706V17.5706C16.8194 17.5706 17.8594 18.6306 17.8594 20.2506C17.8594 21.7906 16.7194 22.7106 15.0594 22.7106C13.5394 22.7106 12.4394 21.9706 11.5794 21.0906L10.4594 22.5706C11.4394 23.6706 12.9394 24.5906 15.2594 24.5906Z" fill="#343434"/>
<path fill-rule="evenodd" clip-rule="evenodd" d="M13.4993 17.5706V15.8706C14.1361 15.8706 14.6793 15.8175 15.1393 15.7191C15.194 15.7074 15.2475 15.6951 15.2998 15.6821C15.8458 15.5469 16.2659 15.3432 16.5799 15.0857C16.8469 14.8667 17.0372 14.6088 17.1629 14.3208C17.299 14.0088 17.3593 13.6616 17.3593 13.2906C17.3593 12.4697 17.0165 11.8482 16.4113 11.4966C16.0764 11.302 15.6612 11.19 15.1793 11.1726C15.1529 11.1716 15.1262 11.1709 15.0993 11.1706C14.2943 11.1847 13.579 11.4581 12.9324 11.9064C12.681 12.0806 12.44 12.2813 12.2081 12.5034C12.1918 12.519 12.1756 12.5347 12.1593 12.5506L10.9593 11.1106C11.1315 10.9562 11.308 10.8085 11.4894 10.6688C11.841 10.3982 12.2108 10.1577 12.6022 9.95786C13.3397 9.58134 14.1539 9.34926 15.0671 9.33165C15.0866 9.33127 15.1061 9.33099 15.1256 9.33081C15.1435 9.33065 15.1614 9.33057 15.1793 9.33057C15.9267 9.33057 16.6116 9.44116 17.2094 9.65464C18.7234 10.1953 19.6793 11.3957 19.6793 13.1306C19.6793 13.9715 19.4395 14.6852 19.0084 15.262C18.9424 15.3501 18.8721 15.4351 18.7974 15.5168C18.4779 15.8664 18.0798 16.1569 17.6165 16.3854C17.4727 16.4564 17.3226 16.5214 17.1666 16.5804C17.1575 16.5838 17.1484 16.5872 17.1393 16.5906V16.6906C17.153 16.6939 17.1667 16.6974 17.1804 16.7009C17.3206 16.7368 17.4583 16.7786 17.5929 16.8262C18.1938 17.0385 18.7334 17.3663 19.1623 17.8014C19.1821 17.8215 19.2017 17.8419 19.2211 17.8624C19.8133 18.492 20.1793 19.3357 20.1793 20.3706C20.1793 22.3221 18.9845 23.6815 17.2818 24.2672C16.6636 24.4799 15.9785 24.5906 15.2593 24.5906C15.192 24.5906 15.1253 24.5898 15.0593 24.5883C12.8527 24.537 11.4109 23.6386 10.4593 22.5706L11.5793 21.0906C11.663 21.1762 11.749 21.2605 11.8373 21.3429C12.2144 21.6945 12.6357 22.0119 13.1143 22.2522C13.6767 22.5346 14.3181 22.7106 15.0593 22.7106C15.1269 22.7106 15.1936 22.709 15.2593 22.706C15.7427 22.6838 16.1772 22.5804 16.5465 22.4039C17.3622 22.0141 17.8593 21.2675 17.8593 20.2506C17.8593 19.8217 17.7865 19.4321 17.6177 19.0911C17.4439 18.7398 17.1684 18.4399 16.766 18.2017C16.4039 17.9873 15.9391 17.8228 15.3532 17.7156C15.2837 17.7028 15.2124 17.6909 15.1393 17.6798C14.6679 17.6081 14.124 17.5706 13.4993 17.5706ZM20.6257 16.4388C21.5633 17.4021 22.1793 18.7225 22.1793 20.3706C22.1793 22.3137 21.3443 23.9364 19.9902 25.0326C18.6765 26.0961 16.9759 26.5906 15.2593 26.5906C12.3254 26.5906 10.2956 25.3934 8.96603 23.901L7.87292 22.674L11.3862 18.0314L11.4993 18.1472V14.8827L8.18803 10.9091L9.62426 9.62143C11.0168 8.37297 12.8318 7.33057 15.1793 7.33057C16.826 7.33057 18.4392 7.75983 19.6824 8.77233C20.9736 9.82403 21.6793 11.3589 21.6793 13.1306C21.6793 14.439 21.2869 15.5497 20.6257 16.4388ZM13.6757 13.8689C14.7968 13.847 15.2078 13.6187 15.3032 13.5459C15.3142 13.5375 15.3208 13.5314 15.3243 13.528L15.3279 13.5242L15.3286 13.5235C15.3286 13.5234 15.3285 13.5236 15.3286 13.5235C15.3289 13.5229 15.3294 13.5218 15.3299 13.5207C15.3339 13.5115 15.3593 13.4472 15.3593 13.2906C15.3593 13.2551 15.3574 13.2271 15.3549 13.2059C15.308 13.1916 15.228 13.1752 15.103 13.1711C14.6765 13.1867 14.2208 13.3701 13.6757 13.8689ZM12.8904 19.5706L13.0097 19.6927C13.6641 20.3622 14.2808 20.7106 15.0593 20.7106C15.5348 20.7106 15.7334 20.5798 15.7796 20.5401C15.8016 20.5212 15.8134 20.5049 15.8237 20.4813C15.835 20.4556 15.8593 20.3863 15.8593 20.2506C15.8593 20.0623 15.8299 19.9888 15.826 19.9798C15.8247 19.9784 15.8225 19.9762 15.8192 19.9733C15.8133 19.9679 15.8026 19.959 15.7856 19.9472C15.6143 19.8286 15.0234 19.5706 13.4993 19.5706H12.8904Z" fill="#DE883A"/>
</svg>
