<svg width="32" height="33" viewBox="0 0 32 33" fill="none" xmlns="http://www.w3.org/2000/svg">
<path d="M20.0006 3.69287H12.0006V6.11894H20.0006V3.69287Z" fill="#E9BE28"/>
<path d="M17.1998 0.863281H14.8004V8.9489H17.1998V0.863281Z" fill="#E9BE28"/>
<path d="M28.0631 28.8057H3.93823V32.8485H28.0631V28.8057Z" fill="#E9BE28"/>
<path d="M6.74967 14.1802C7.25261 18.1509 9.29653 23.0149 10.9996 26.6136H14.026V12.5881C14.026 10.17 11.7018 9.20267 9.66566 9.60341C8.40497 9.85015 6.37955 11.2586 6.74967 14.1802Z" fill="#E9BE28"/>
<path d="M4.14127 12.7478C4.1364 12.5474 4.02409 12.3648 3.84734 12.274C3.67153 12.1823 3.45965 12.1941 3.29559 12.3076C3.29559 12.3076 2.80828 12.502 2.25753 13.0143C-0.611576 15.6852 -1.37138 19.7941 3.7409 26.6134H8.36294C6.96745 23.5161 4.58558 18.5998 4.16665 13.7506C4.10709 13.0577 4.14127 12.7478 4.14127 12.7478Z" fill="#E9BE28"/>
<path d="M25.2506 14.4357C24.7476 18.4065 22.7037 23.2715 21.0006 26.8682H17.9742V12.8436C17.9742 10.4264 20.2985 9.45916 22.3346 9.85889C23.5953 10.1066 25.6207 11.5142 25.2506 14.4357Z" fill="#E9BE28"/>
<path d="M27.859 13.0035C27.8639 12.8031 27.9772 12.6215 28.1529 12.5287C28.3287 12.4379 28.5406 12.4497 28.7047 12.5622C28.7047 12.5622 29.192 12.7577 29.7427 13.2709C32.6118 15.9418 33.3717 20.0498 28.2594 26.868H23.6373C25.0328 23.7708 27.4147 18.8554 27.8336 14.0072C27.8932 13.3134 27.859 13.0035 27.859 13.0035Z" fill="#E9BE28"/>
<path d="M16.7086 25.8165C16.7086 26.2115 16.3912 26.5324 16.0006 26.5324C15.609 26.5324 15.2916 26.2115 15.2916 25.8165C15.2916 25.4205 15.609 25.0996 16.0006 25.0996C16.3912 25.0996 16.7086 25.4205 16.7086 25.8165Z" fill="#E9BE28"/>
<path d="M16.7086 22.9264C16.7086 23.3224 16.3912 23.6433 16.0006 23.6433C15.609 23.6433 15.2916 23.3224 15.2916 22.9264C15.2916 22.5314 15.609 22.2104 16.0006 22.2104C16.3912 22.2104 16.7086 22.5314 16.7086 22.9264Z" fill="#E9BE28"/>
<path d="M16.7086 20.0382C16.7086 20.4332 16.3912 20.7541 16.0006 20.7541C15.609 20.7541 15.2916 20.4332 15.2916 20.0382C15.2916 19.6422 15.609 19.3213 16.0006 19.3213C16.3912 19.3213 16.7086 19.6422 16.7086 20.0382Z" fill="#E9BE28"/>
<path d="M16.7086 17.1481C16.7086 17.5431 16.3912 17.865 16.0006 17.865C15.609 17.865 15.2916 17.5431 15.2916 17.1481C15.2916 16.7531 15.609 16.4312 16.0006 16.4312C16.3912 16.4312 16.7086 16.7531 16.7086 17.1481Z" fill="#E9BE28"/>
<path d="M16.7086 14.2594C16.7086 14.6554 16.3912 14.9753 16.0006 14.9753C15.609 14.9753 15.2916 14.6553 15.2916 14.2594C15.2916 13.8634 15.609 13.5435 16.0006 13.5435C16.3912 13.5435 16.7086 13.8634 16.7086 14.2594Z" fill="#E9BE28"/>
<path d="M16.7086 11.3702C16.7086 11.7652 16.3912 12.0872 16.0006 12.0872C15.609 12.0872 15.2916 11.7652 15.2916 11.3702C15.2916 10.9753 15.609 10.6533 16.0006 10.6533C16.3912 10.6534 16.7086 10.9753 16.7086 11.3702Z" fill="#E9BE28"/>
<path d="M11.6194 24.3308H20.0194V22.4308H17.1394V9.59082H15.3994C14.5594 10.1308 13.5794 10.4708 12.1994 10.7308V12.1908H14.8394V22.4308H11.6194V24.3308Z" fill="#343434"/>
<path fill-rule="evenodd" clip-rule="evenodd" d="M9.61938 26.3308V20.4308H12.8394V14.1908H10.1994V9.07245L11.8291 8.7654C13.0689 8.53182 13.7738 8.25825 14.3179 7.90846L14.812 7.59082H19.1394V20.4308H22.0194V26.3308H9.61938ZM17.1394 9.59082H15.3994C15.3142 9.64555 15.2277 9.69823 15.1394 9.74898C14.8495 9.91558 14.5413 10.0614 14.205 10.1908C13.6332 10.4109 12.9803 10.5837 12.1994 10.7308V12.1908H14.8394V22.4308H11.6194V24.3308H20.0194V22.4308H17.1394V9.59082Z" fill="#F2D51F"/>
</svg>


